<?xml version="1.0" standalone="no"?>
<!DOCTYPE svg PUBLIC "-//W3C//DTD SVG 20010904//EN"
 "http://www.w3.org/TR/2001/REC-SVG-20010904/DTD/svg10.dtd">
<svg version="1.0" xmlns="http://www.w3.org/2000/svg"
 width="560.000000pt" height="560.000000pt" viewBox="0 0 560.000000 560.000000"
 preserveAspectRatio="xMidYMid meet">
<metadata>
Created by potrace 1.16, written by Peter Selinger 2001-2019
</metadata>
<g transform="translate(0.000000,560.000000) scale(0.100000,-0.100000)"
fill="#000000" stroke="none">
<path d="M2505 2961 l-40 -6 -11 -140 c-6 -77 -9 -180 -6 -230 3 -61 -1 -111
-12 -157 -15 -66 -15 -68 9 -120 35 -79 48 -173 43 -317 -6 -137 -30 -231 -68
-263 -19 -15 -18 -16 33 -28 66 -16 101 -34 157 -80 l45 -38 0 107 c0 99 2
111 32 171 19 38 55 88 88 120 64 63 71 62 121 -11 51 -76 78 -178 79 -294 l0
-100 56 57 c45 46 67 60 115 74 32 9 62 18 66 20 3 2 -7 29 -24 59 -23 43 -31
76 -40 152 -14 138 -3 303 28 393 3 8 7 69 8 135 2 93 8 141 29 213 34 124 44
201 26 213 -30 19 -201 69 -238 69 -27 0 -51 -9 -80 -31 l-42 -30 -40 35 -39
36 -128 -1 c-70 -1 -145 -5 -167 -8z m395 -122 c0 -5 -7 -9 -15 -9 -15 0 -20
12 -9 23 8 8 24 -1 24 -14z m-10 -84 c0 -8 -4 -15 -9 -15 -13 0 -22 16 -14 24
11 11 23 6 23 -9z m0 -90 c0 -8 -4 -15 -10 -15 -5 0 -10 7 -10 15 0 8 5 15 10
15 6 0 10 -7 10 -15z m0 -80 c0 -8 -4 -15 -10 -15 -5 0 -10 7 -10 15 0 8 5 15
10 15 6 0 10 -7 10 -15z m0 -83 c0 -13 -12 -22 -22 -16 -10 6 -1 24 13 24 5 0
9 -4 9 -8z m-10 -87 c0 -8 -4 -15 -10 -15 -5 0 -10 7 -10 15 0 8 5 15 10 15 6
0 10 -7 10 -15z m-9 -88 c-1 -12 -15 -9 -19 4 -3 6 1 10 8 8 6 -3 11 -8 11
-12z m-11 -82 c0 -8 -4 -15 -10 -15 -5 0 -10 7 -10 15 0 8 5 15 10 15 6 0 10
-7 10 -15z m-10 -85 c0 -5 -4 -10 -10 -10 -5 0 -10 5 -10 10 0 6 5 10 10 10 6
0 10 -4 10 -10z m0 -80 c0 -5 -4 -10 -10 -10 -5 0 -10 5 -10 10 0 6 5 10 10
10 6 0 10 -4 10 -10z"/>
<path d="M2660 1303 c0 -10 -7 -31 -15 -47 -25 -47 -19 -119 14 -185 28 -55
33 -59 86 -76 133 -41 234 19 250 149 5 39 3 63 -8 87 -9 19 -18 48 -20 64 -2
17 -5 0 -6 -37 -1 -87 -19 -108 -90 -108 -28 0 -52 -4 -56 -9 -3 -5 -22 -15
-43 -22 -20 -6 -45 -18 -54 -26 -15 -13 -18 -12 -35 13 -14 22 -18 47 -18 121
1 51 -1 93 -2 93 -2 0 -3 -8 -3 -17z"/>
<path d="M2719 1269 c-10 -6 -7 -9 14 -9 29 0 35 5 14 13 -8 3 -20 1 -28 -4z"/>
<path d="M2878 1263 c6 -2 18 -2 25 0 6 3 1 5 -13 5 -14 0 -19 -2 -12 -5z"/>
<path d="M2705 1241 c-44 -10 -14 -23 34 -15 23 4 41 10 41 15 0 10 -30 10
-75 0z"/>
<path d="M2836 1241 c-3 -4 15 -11 40 -15 45 -6 64 -2 64 12 0 10 -98 13 -104
3z"/>
</g>
</svg>
